<svg viewBox="0 0 22 22" xmlns="http://www.w3.org/2000/svg">
  <path
    d="M11 6C9.67392 6 8.40215 6.52678 7.46447 7.46447C6.52678 8.40215 6 9.67392 6 11C6 12.3261 6.52678 13.5979 7.46447 14.5355C8.40215 15.4732 9.67392 16 11 16C12.3261 16 13.5979 15.4732 14.5355 14.5355C15.4732 13.5979 16 12.3261 16 11C16 9.67392 15.4732 8.40215 14.5355 7.46447C13.5979 6.52678 12.3261 6 11 6Z"
  />
  <path
    fill-rule="evenodd"
    clip-rule="evenodd"
    d="M11 0C11.2652 0 11.5196 0.105357 11.7071 0.292893C11.8946 0.48043 12 0.734784 12 1V2C12 2.26522 11.8946 2.51957 11.7071 2.70711C11.5196 2.89464 11.2652 3 11 3C10.7348 3 10.4804 2.89464 10.2929 2.70711C10.1054 2.51957 10 2.26522 10 2V1C10 0.734784 10.1054 0.48043 10.2929 0.292893C10.4804 0.105357 10.7348 0 11 0V0ZM2.293 2.293C2.48053 2.10553 2.73484 2.00021 3 2.00021C3.26516 2.00021 3.51947 2.10553 3.707 2.293L5.207 3.793C5.38916 3.9816 5.48995 4.2342 5.48767 4.4964C5.4854 4.7586 5.38023 5.00941 5.19482 5.19482C5.00941 5.38023 4.7586 5.4854 4.4964 5.48767C4.2342 5.48995 3.9816 5.38916 3.793 5.207L2.293 3.707C2.10553 3.51947 2.00021 3.26516 2.00021 3C2.00021 2.73484 2.10553 2.48053 2.293 2.293V2.293ZM19.707 2.293C19.8945 2.48053 19.9998 2.73484 19.9998 3C19.9998 3.26516 19.8945 3.51947 19.707 3.707L18.207 5.207C18.1148 5.30251 18.0044 5.37869 17.8824 5.4311C17.7604 5.48351 17.6292 5.5111 17.4964 5.51225C17.3636 5.5134 17.2319 5.4881 17.109 5.43782C16.9862 5.38754 16.8745 5.31329 16.7806 5.2194C16.6867 5.1255 16.6125 5.01385 16.5622 4.89095C16.5119 4.76806 16.4866 4.63638 16.4877 4.5036C16.4889 4.37082 16.5165 4.2396 16.5689 4.1176C16.6213 3.99559 16.6975 3.88525 16.793 3.793L18.293 2.293C18.4805 2.10553 18.7348 2.00021 19 2.00021C19.2652 2.00021 19.5195 2.10553 19.707 2.293ZM0 11C0 10.7348 0.105357 10.4804 0.292893 10.2929C0.48043 10.1054 0.734784 10 1 10H2C2.26522 10 2.51957 10.1054 2.70711 10.2929C2.89464 10.4804 3 10.7348 3 11C3 11.2652 2.89464 11.5196 2.70711 11.7071C2.51957 11.8946 2.26522 12 2 12H1C0.734784 12 0.48043 11.8946 0.292893 11.7071C0.105357 11.5196 0 11.2652 0 11ZM19 11C19 10.7348 19.1054 10.4804 19.2929 10.2929C19.4804 10.1054 19.7348 10 20 10H21C21.2652 10 21.5196 10.1054 21.7071 10.2929C21.8946 10.4804 22 10.7348 22 11C22 11.2652 21.8946 11.5196 21.7071 11.7071C21.5196 11.8946 21.2652 12 21 12H20C19.7348 12 19.4804 11.8946 19.2929 11.7071C19.1054 11.5196 19 11.2652 19 11ZM5.207 16.793C5.39447 16.9805 5.49979 17.2348 5.49979 17.5C5.49979 17.7652 5.39447 18.0195 5.207 18.207L3.707 19.707C3.5184 19.8892 3.2658 19.99 3.0036 19.9877C2.7414 19.9854 2.49059 19.8802 2.30518 19.6948C2.11977 19.5094 2.0146 19.2586 2.01233 18.9964C2.01005 18.7342 2.11084 18.4816 2.293 18.293L3.793 16.793C3.98053 16.6055 4.23484 16.5002 4.5 16.5002C4.76516 16.5002 5.01947 16.6055 5.207 16.793V16.793ZM16.793 16.793C16.9805 16.6055 17.2348 16.5002 17.5 16.5002C17.7652 16.5002 18.0195 16.6055 18.207 16.793L19.707 18.293C19.8892 18.4816 19.99 18.7342 19.9877 18.9964C19.9854 19.2586 19.8802 19.5094 19.6948 19.6948C19.5094 19.8802 19.2586 19.9854 18.9964 19.9877C18.7342 19.99 18.4816 19.8892 18.293 19.707L16.793 18.207C16.6055 18.0195 16.5002 17.7652 16.5002 17.5C16.5002 17.2348 16.6055 16.9805 16.793 16.793ZM11 19C11.2652 19 11.5196 19.1054 11.7071 19.2929C11.8946 19.4804 12 19.7348 12 20V21C12 21.2652 11.8946 21.5196 11.7071 21.7071C11.5196 21.8946 11.2652 22 11 22C10.7348 22 10.4804 21.8946 10.2929 21.7071C10.1054 21.5196 10 21.2652 10 21V20C10 19.7348 10.1054 19.4804 10.2929 19.2929C10.4804 19.1054 10.7348 19 11 19V19Z"
  />
</svg>
