<svg viewBox="0 0 20 20" xmlns="http://www.w3.org/2000/svg">
  <path
    d="M7.5 0.347629C7.62202 0.495895 7.69677 0.677344 7.71459 0.868532C7.73242 1.05972 7.6925 1.25186 7.6 1.42013C6.87732 2.74697 6.49992 4.23425 6.5025 5.74513C6.5025 10.7714 10.6 14.8414 15.65 14.8414C16.3087 14.8414 16.95 14.7726 17.5662 14.6414C17.7552 14.6005 17.9519 14.6161 18.132 14.6864C18.3121 14.7566 18.4674 14.8784 18.5787 15.0364C18.6962 15.2007 18.7561 15.3992 18.7491 15.6011C18.7421 15.803 18.6686 15.9969 18.54 16.1526C17.5596 17.3569 16.3228 18.3273 14.9198 18.9929C13.5168 19.6585 11.9829 20.0026 10.43 20.0001C4.6675 20.0001 0 15.3576 0 9.63763C0 5.33263 2.6425 1.64013 6.405 0.075129C6.59242 -0.0040812 6.80049 -0.0203387 6.99794 0.0287986C7.19539 0.0779359 7.37156 0.189815 7.5 0.347629ZM6.0725 1.63888C4.62575 2.41492 3.4163 3.56843 2.57266 4.97683C1.72903 6.38523 1.28275 7.99589 1.28125 9.63763C1.28125 14.6626 5.38 18.7326 10.43 18.7326C11.6393 18.7347 12.837 18.497 13.9538 18.0331C15.0706 17.5692 16.0843 16.8884 16.9362 16.0301C16.515 16.0826 16.0862 16.1089 15.65 16.1089C9.8875 16.1089 5.22125 11.4664 5.22125 5.74638C5.22125 4.28763 5.52375 2.89888 6.0725 1.63888Z"
  />
  <path
    d="M13.4925 3.93508C13.5104 3.88095 13.545 3.83384 13.5912 3.80046C13.6374 3.76707 13.693 3.7491 13.75 3.7491C13.807 3.7491 13.8626 3.76707 13.9088 3.80046C13.9551 3.83384 13.9896 3.88095 14.0075 3.93508L14.4913 5.38758C14.7075 6.03508 15.215 6.54258 15.8625 6.75883L17.315 7.24258C17.3691 7.26051 17.4162 7.29504 17.4496 7.34126C17.483 7.38749 17.501 7.44306 17.501 7.50008C17.501 7.5571 17.483 7.61268 17.4496 7.6589C17.4162 7.70513 17.3691 7.73966 17.315 7.75758L15.8625 8.24133C15.5432 8.34773 15.253 8.52704 15.015 8.76505C14.777 9.00306 14.5977 9.29324 14.4913 9.61258L14.0075 11.0651C13.9896 11.1192 13.9551 11.1663 13.9088 11.1997C13.8626 11.2331 13.807 11.2511 13.75 11.2511C13.693 11.2511 13.6374 11.2331 13.5912 11.1997C13.545 11.1663 13.5104 11.1192 13.4925 11.0651L13.0088 9.61258C12.9024 9.29324 12.7231 9.00306 12.485 8.76505C12.247 8.52704 11.9569 8.34773 11.6375 8.24133L10.185 7.75758C10.1309 7.73966 10.0838 7.70513 10.0504 7.6589C10.017 7.61268 9.99902 7.5571 9.99902 7.50008C9.99902 7.44306 10.017 7.38749 10.0504 7.34126C10.0838 7.29504 10.1309 7.26051 10.185 7.24258L11.6375 6.75883C11.9569 6.65244 12.247 6.47313 12.485 6.23511C12.7231 5.9971 12.9024 5.70693 13.0088 5.38758L13.4925 3.93508ZM17.3288 0.123831C17.3411 0.0882393 17.3642 0.0573763 17.3949 0.0355334C17.4256 0.0136905 17.4623 0.00195312 17.5 0.00195312C17.5377 0.00195313 17.5744 0.0136905 17.6051 0.0355334C17.6358 0.0573763 17.6589 0.0882393 17.6713 0.123831L17.9938 1.09133C18.1375 1.52383 18.4763 1.86258 18.9088 2.00633L19.8763 2.32883C19.9119 2.34117 19.9427 2.36429 19.9646 2.39499C19.9864 2.42568 19.9981 2.46241 19.9981 2.50008C19.9981 2.53775 19.9864 2.57449 19.9646 2.60518C19.9427 2.63587 19.9119 2.65899 19.8763 2.67133L18.9088 2.99383C18.6956 3.06474 18.5019 3.18435 18.3431 3.34319C18.1843 3.50202 18.0647 3.69569 17.9938 3.90883L17.6713 4.87633C17.6589 4.91192 17.6358 4.94279 17.6051 4.96463C17.5744 4.98647 17.5377 4.99821 17.5 4.99821C17.4623 4.99821 17.4256 4.98647 17.3949 4.96463C17.3642 4.94279 17.3411 4.91192 17.3288 4.87633L17.0063 3.90883C16.9354 3.69569 16.8157 3.50202 16.6569 3.34319C16.4981 3.18435 16.3044 3.06474 16.0913 2.99383L15.1238 2.67133C15.0882 2.65899 15.0573 2.63587 15.0355 2.60518C15.0136 2.57449 15.0019 2.53775 15.0019 2.50008C15.0019 2.46241 15.0136 2.42568 15.0355 2.39499C15.0573 2.36429 15.0882 2.34117 15.1238 2.32883L16.0913 2.00633C16.5238 1.86258 16.8625 1.52383 17.0063 1.09133L17.3288 0.125081V0.123831Z"
  />
</svg>
