<svg viewBox="0 0 86 85" fill="none" xmlns="http://www.w3.org/2000/svg">
  <path
    d="M42.8615 0.246826C19.5868 0.246826 0.714844 19.1188 0.714844 42.3935C0.714844 65.6683 19.5868 84.5402 42.8615 84.5402C66.1363 84.5402 85.0082 65.6683 85.0082 42.3935C85.0082 19.1188 66.1363 0.246826 42.8615 0.246826ZM56.4181 43.0427L35.8716 57.9916C35.7589 58.0725 35.6262 58.1208 35.4879 58.1312C35.3495 58.1416 35.211 58.1137 35.0876 58.0505C34.9641 57.9873 34.8604 57.8913 34.7879 57.773C34.7155 57.6547 34.677 57.5188 34.6768 57.3801V27.5011C34.6763 27.3621 34.7144 27.2257 34.7867 27.107C34.859 26.9883 34.9628 26.892 35.0865 26.8286C35.2102 26.7653 35.3491 26.7375 35.4877 26.7482C35.6262 26.759 35.7591 26.8079 35.8716 26.8896L56.4181 41.8291C56.5152 41.8977 56.5944 41.9886 56.649 42.0942C56.7037 42.1998 56.7322 42.317 56.7322 42.4359C56.7322 42.5548 56.7037 42.6719 56.649 42.7775C56.5944 42.8831 56.5152 42.974 56.4181 43.0427Z"
    fill="white"
    fill-opacity="0.9"
  />
</svg>
