<svg viewBox="0 0 10 14" fill="none" xmlns="http://www.w3.org/2000/svg">
  <path
    d="M2.07164 9.0622L4.25604 12.9423C4.36884 13.1386 4.57765 13.2598 4.8032 13.2598C5.02874 13.2598 5.23755 13.1386 5.35035 12.9423L7.53476 9.0622C8.83372 8.16422 9.60639 6.69819 9.60639 5.11524C9.60639 2.46721 7.45123 0.312042 4.8032 0.312042C2.15517 0.312042 0 2.46721 0 5.11524C0 6.69819 0.77267 8.16422 2.07164 9.0622V9.0622ZM4.8032 3.16054C5.88078 3.16054 6.7579 4.03763 6.7579 5.11524C6.7579 6.19279 5.88078 7.06991 4.8032 7.06991C3.72562 7.06991 2.8485 6.19279 2.8485 5.11524C2.8485 4.03763 3.72561 3.16054 4.8032 3.16054V3.16054Z"
    fill="white"
  />
</svg>
