<svg viewBox="0 0 10 17" fill="none" xmlns="http://www.w3.org/2000/svg">
  <path
    d="M0.20318 1.13226L7.4259 8.15697L0.20318 15.1817C0.0738736 15.3072 0.00148235 15.4757 0.00148236 15.6511C0.00148237 15.8266 0.0738737 15.995 0.20318 16.1206C0.265985 16.1813 0.340948 16.2296 0.423681 16.2626C0.506413 16.2955 0.595251 16.3125 0.684991 16.3125C0.774731 16.3125 0.863568 16.2955 0.946301 16.2626C1.02903 16.2296 1.104 16.1813 1.1668 16.1206L8.85206 8.64749C8.98698 8.51625 9.0625 8.34024 9.0625 8.15697C9.0625 7.9737 8.98698 7.79768 8.85206 7.66645L1.16828 0.193382C1.10543 0.132181 1.03028 0.083538 0.947278 0.0503254C0.864271 0.0171108 0.775087 -3.38802e-08 0.68499 -2.99419e-08C0.594894 -2.60037e-08 0.505709 0.0171108 0.422702 0.0503254C0.339696 0.083538 0.264549 0.132181 0.201697 0.193382C0.0723899 0.318891 -6.91738e-07 0.487376 -6.84069e-07 0.662822C-6.764e-07 0.838266 0.0723899 1.00675 0.201697 1.13226L0.20318 1.13226Z"
    fill="white"
  />
</svg>
