<svg viewBox="0 0 22 22" fill="none" xmlns="http://www.w3.org/2000/svg">
  <path
    d="M1.48298 0.234008C1.35743 0.171212 1.21677 0.144914 1.07701 0.158104C0.93725 0.171293 0.803997 0.223443 0.692409 0.308619C0.58082 0.393795 0.495376 0.508578 0.445796 0.639913C0.396216 0.771248 0.38449 0.913861 0.411953 1.05153L2.51651 8.32672C2.55575 8.4623 2.63245 8.58405 2.7378 8.67799C2.84314 8.77192 2.97285 8.83423 3.11202 8.85774L11.6473 10.2873C12.0493 10.3668 12.0493 10.9428 11.6473 11.0223L3.11202 12.4518C2.97285 12.4753 2.84314 12.5376 2.7378 12.6316C2.63245 12.7255 2.55575 12.8473 2.51651 12.9828L0.411953 20.258C0.38449 20.3957 0.396216 20.5383 0.445796 20.6697C0.495376 20.801 0.58082 20.9158 0.692409 21.001C0.803997 21.0861 0.93725 21.1383 1.07701 21.1515C1.21677 21.1647 1.35743 21.1384 1.48298 21.0756L20.9835 11.3253C21.1079 11.2629 21.2125 11.1672 21.2856 11.0488C21.3587 10.9304 21.3975 10.794 21.3975 10.6548C21.3975 10.5156 21.3587 10.3792 21.2856 10.2608C21.2125 10.1424 21.1079 10.0466 20.9835 9.98427L1.48298 0.234008Z"
    fill="white"
  />
</svg>
