<svg viewBox="0 0 11 11" fill="none" xmlns="http://www.w3.org/2000/svg">
  <path
    d="M7.01613 5.38618L10.5133 1.89712C10.6665 1.74397 10.7525 1.53626 10.7525 1.31968C10.7525 1.1031 10.6665 0.895384 10.5133 0.742236C10.3602 0.589089 10.1525 0.503052 9.93587 0.503052C9.71929 0.503052 9.51158 0.589089 9.35843 0.742236L5.86937 4.23942L2.38032 0.742236C2.22717 0.589089 2.01946 0.503052 1.80288 0.503052C1.5863 0.503052 1.37858 0.589089 1.22544 0.742236C1.07229 0.895384 0.986251 1.1031 0.986251 1.31968C0.986251 1.53626 1.07229 1.74397 1.22544 1.89712L4.72262 5.38618L1.22544 8.87523C1.14921 8.95084 1.0887 9.04079 1.04741 9.13989C1.00612 9.239 0.984863 9.34531 0.984863 9.45267C0.984863 9.56004 1.00612 9.66634 1.04741 9.76545C1.0887 9.86455 1.14921 9.95451 1.22544 10.0301C1.30104 10.1063 1.39099 10.1668 1.4901 10.2081C1.58921 10.2494 1.69551 10.2707 1.80288 10.2707C1.91024 10.2707 2.01655 10.2494 2.11565 10.2081C2.21476 10.1668 2.30471 10.1063 2.38032 10.0301L5.86937 6.53293L9.35843 10.0301C9.43404 10.1063 9.52399 10.1668 9.62309 10.2081C9.7222 10.2494 9.8285 10.2707 9.93587 10.2707C10.0432 10.2707 10.1495 10.2494 10.2486 10.2081C10.3478 10.1668 10.4377 10.1063 10.5133 10.0301C10.5895 9.95451 10.65 9.86455 10.6913 9.76545C10.7326 9.66634 10.7539 9.56004 10.7539 9.45267C10.7539 9.34531 10.7326 9.239 10.6913 9.13989C10.65 9.04079 10.5895 8.95084 10.5133 8.87523L7.01613 5.38618Z"
    fill="white"
  />
</svg>
