<svg viewBox="0 0 26 26" fill="none" xmlns="http://www.w3.org/2000/svg">
  <path
    d="M14.9674 6.14125L19.8433 11.0172L11.0172 19.8433L6.14125 14.9674L14.9674 6.14125ZM11.7116 21.2475L21.2475 11.7116C21.4429 11.5161 21.5407 11.2847 21.5407 11.0172C21.5407 10.7498 21.4429 10.5183 21.2475 10.3228L15.6617 4.73709C15.4766 4.55193 15.2451 4.45935 14.9674 4.45935C14.6896 4.45935 14.4582 4.55193 14.273 4.73709L4.73709 14.273C4.54164 14.4684 4.44392 14.6999 4.44392 14.9674C4.44392 15.2348 4.54164 15.4663 4.73709 15.6617L10.3228 21.2475C10.508 21.4326 10.7395 21.5252 11.0172 21.5252C11.295 21.5252 11.5264 21.4326 11.7116 21.2475ZM25.4291 11.4184L11.4338 25.4291C11.0532 25.8097 10.5877 26 10.0374 26C9.48704 26 9.02156 25.8097 8.64095 25.4291L6.69674 23.4849C7.2728 22.9088 7.56083 22.2093 7.56083 21.3864C7.56083 20.5634 7.2728 19.8639 6.69674 19.2878C6.12067 18.7118 5.42117 18.4237 4.59822 18.4237C3.77527 18.4237 3.07577 18.7118 2.4997 19.2878L0.57092 17.3436C0.190307 16.963 0 16.4975 0 15.9472C0 15.3968 0.190307 14.9314 0.57092 14.5507L14.5662 0.57092C14.9468 0.190307 15.4123 0 15.9626 0C16.513 0 16.9784 0.190307 17.3591 0.57092L19.2878 2.4997C18.7118 3.07577 18.4237 3.77527 18.4237 4.59822C18.4237 5.42117 18.7118 6.12067 19.2878 6.69674C19.8639 7.2728 20.5634 7.56083 21.3864 7.56083C22.2093 7.56083 22.9088 7.2728 23.4849 6.69674L25.4291 8.62552C25.8097 9.00613 26 9.47161 26 10.022C26 10.5723 25.8097 11.0378 25.4291 11.4184Z"
    fill="white"
  />
</svg>
