<?xml version="1.0"?>
<svg version="1.1" xmlns="http://www.w3.org/2000/svg" width="190" height="80" style=""><path fill="#" d="M15.46875,40.375q0-0.328125,0.703125-0.5625t1.59375-0.38671875t1.72265625-0.22265625t1.13671875-0.1171875q0-0.6328125,0.046875-1.27734375t0.2578125-1.1484375t0.66796875-0.80859375t1.27734375-0.3046875q0.6796875,0,1.03125,0.1640625t0.75,0.6796875q0.09375,0.28125,0.09375,0.5390625l0,0.78515625t-0.046875,0.80859375q0.8671875-0.09375,1.72265625-0.22265625t1.72265625-0.12890625q0.6328125,0,0.8671875,0.0234375t0.46875,0.5625q0.1875,0.5390625-0.45703125,0.8203125t-1.546875,0.421875t-1.79296875,0.2109375t-1.078125,0.0703125q-0.28125,4.03125-0.57421875,7.9921875t-0.29296875,8.0390625q0,1.828125,0.1171875,3.7734375t0.65625,3.6796875q0.140625,0.5390625,0.46875,1.0078125t0.328125,1.0078125q0,0.328125-0.2578125,0.515625t-0.62109375,0.31640625t-0.7265625,0.15234375t-0.59765625,0.0234375q-1.4765625,0-2.25-1.1015625t-1.11328125-2.63671875t-0.36328125-3.15234375t-0.0234375-2.625q0-2.0625,0.08203125-4.21875t0.19921875-4.265625t0.328125-4.125t0.4921875-3.75q-0.8203125,0.09375-1.60546875,0.2109375t-1.60546875,0.1171875q-0.1875,0-0.50390625-0.0234375t-0.59765625-0.1171875t-0.48046875-0.2578125t-0.19921875-0.46875z M33.390703125,57.8125l0-2.203125q0-1.1953125,0.05859375-3.38671875t0.15234375-4.8046875t0.2578125-5.44921875t0.375-5.35546875t0.50390625-4.51171875t0.66796875-2.953125q0.234375-0.5390625,0.7734375-0.6796875t1.0546875-0.140625q0.8203125,0,1.44140625,0.36328125t0.62109375,1.32421875l-0.421875,0.46875q-0.8203125,5.4140625-1.0546875,10.875t-0.328125,10.921875q0.5859375-0.9140625,1.32421875-1.79296875t1.640625-1.55859375t1.9453125-1.08984375t2.28515625-0.41015625q1.59375,0,2.63671875,0.9609375t1.72265625,2.49609375t1.0078125,3.43359375t0.50390625,3.796875t0.24609375,3.59765625t0.2109375,2.82421875q-0.4453125,0.609375-1.3125,0.609375l-0.0703125,0q-0.375,0-0.8203125-0.09375t-0.5859375-0.46875l0.046875,0.046875q-0.328125-0.7265625-0.4453125-2.09765625t-0.1875-3.0234375t-0.24609375-3.38671875t-0.52734375-3.140625t-1.03125-2.3203125t-1.828125-0.9609375l-0.140625,0q-1.3828125,0-2.3203125,0.84375q-0.984375,0.890625-1.59375,2.34375t-0.9375,3.234375t-0.50390625,3.43359375t-0.26953125,3t-0.234375,1.98046875q-0.140625,0.5390625-0.83203125,0.71484375t-1.18359375,0.17578125q-1.1484375,0-1.875-0.65625q-0.5390625-1.2890625-0.6328125-3.2109375t-0.09375-3.75z M55.81265625,55.2578125q0-1.59375,0.43359375-3.0703125t1.30078125-2.63671875t2.16796875-1.8515625t3.01171875-0.69140625q1.0546875,0,2.33203125,0.31640625t2.40234375,0.9375t1.875,1.58203125t0.75,2.203125q0,0.5859375-0.19921875,0.890625t-0.80859375,0.3046875l-0.2578125-0.046875q0.6796875,1.828125,1.171875,3.75t0.9609375,3.84375q0.1875,0.375,0.28125,0.66796875t0.09375,0.57421875q0,0.375-0.2109375,0.62109375t-0.55078125,0.36328125t-0.703125,0.1640625t-0.64453125,0.046875q-1.0078125,0-1.51171875-0.3515625t-0.7265625-0.9609375t-0.26953125-1.37109375t-0.1875-1.53515625q-0.28125,0.9140625-0.73828125,1.78125t-1.078125,1.55859375t-1.46484375,1.1015625t-1.8984375,0.41015625q-1.546875,0-2.6015625-0.890625t-1.69921875-2.19140625t-0.9375-2.77734375t-0.29296875-2.7421875z M59.14078125,54.9296875q0,0.8671875,0.1171875,1.828125t0.38671875,1.8984375t0.69140625,1.76953125t1.0546875,1.46484375q1.1484375-1.2421875,1.69921875-3.0234375t0.984375-3.43359375t0.984375-2.8359375t1.69921875-1.18359375q0.7265625,0,1.21875,0.2578125q-0.234375-0.5859375-0.7734375-1.13671875t-1.20703125-1.0078125t-1.3828125-0.75t-1.34765625-0.29296875q-0.1875,0-0.43359375,0.05859375t-0.38671875,0.01171875q-0.9609375,0.28125-1.58203125,0.97265625t-1.0078125,1.62890625t-0.55078125,1.921875t-0.1640625,1.8515625z M76.148671875,55.375l0-0.6796875q0-0.84375,0.046875-1.59375q0.046875-1.0546875,0.046875-1.734375q0-0.375,0.046875-0.85546875t0.234375-0.76171875q0.234375-0.234375,0.55078125-0.48046875t0.69140625-0.24609375q1.1953125,0,1.875,0.26953125t0.7265625,1.11328125l0.09375,0.7265625q0.421875-1.0078125,1.125-2.49609375t1.62890625-2.8359375t2.0859375-2.296875t2.44921875-0.94921875q1.1953125,0,1.96875,1.125t1.23046875,2.87109375t0.64453125,3.890625t0.2578125,4.20703125t0.09375,3.76171875t0.1640625,2.56640625q0.09375,0.7265625,0.31640625,1.53515625t0.22265625,1.48828125q0,0.1875-0.26953125,0.36328125t-0.57421875,0.29296875t-0.62109375,0.1875t-0.45703125,0.0703125q-0.9140625,0-1.30078125-1.37109375t-0.48046875-3.43359375t-0.09375-4.46484375t-0.1640625-4.46484375t-0.66796875-3.43359375t-1.60546875-1.41796875q-1.0078125,0-2.0859375,1.30078125t-1.8515625,3.45703125q-0.75,2.15625-1.03125,4.8984375q-0.09375,0.8671875-0.09375,1.734375q0,1.8984375,0.3984375,3.796875q0.046875,0.328125-0.26953125,0.4921875t-0.78515625,0.2578125t-0.94921875,0.1171875t-0.73828125,0.0234375q-0.9140625,0-1.46484375-0.64453125t-0.85546875-1.65234375t-0.41015625-2.26171875t-0.12890625-2.47265625z M97.445625,54.4375q0-1.2890625,0.24609375-2.75390625t0.84375-2.68359375t1.65234375-2.015625t2.6953125-0.796875q1.1015625,0,2.1328125,0.36328125t1.9453125,0.99609375q0.28125-0.46875,0.890625-0.57421875t1.078125-0.10546875q0.1875,0,0.52734375,0.0234375t0.66796875,0.140625t0.57421875,0.28125t0.29296875,0.46875q0.1875,1.640625,0.2578125,3.26953125t0.2109375,3.24609375q0.234375,3.0234375,0.7265625,5.9765625t0.4921875,5.9765625q0,1.4296875-0.12890625,3.09375t-0.6796875,3.08203125t-1.60546875,2.35546875t-2.9296875,0.9375q-1.6875,0-2.58984375-0.59765625t-1.62890625-2.00390625q0.046875-0.46875,0.59765625-0.62109375t0.94921875-0.15234375q0.375,0,0.76171875,0.0703125t0.62109375,0.234375l0.5859375,0.375q0.8671875-1.78125,1.0546875-3.890625t0.1875-4.078125q0-1.640625-0.1640625-3.24609375t-0.328125-3.22265625q-1.640625,2.9765625-4.9921875,2.9765625q-1.546875,0-2.51953125-0.65625t-1.5-1.6640625t-0.7265625-2.2734375t-0.19921875-2.53125z M100.3284375,54.6484375q0,0.5859375,0.046875,1.51171875t0.24609375,1.81640625t0.57421875,1.53515625t1.0546875,0.64453125q1.2890625,0,2.0390625-1.0078125t1.18359375-2.40234375t0.69140625-2.8828125t0.65625-2.44921875q-0.046875-0.328125-0.046875-0.64453125l0-0.64453125q-0.5390625-1.0078125-1.5703125-1.74609375t-2.1328125-0.99609375q-0.140625-0.0234375-0.2578125-0.0234375q-0.65625,0-1.078125,0.7734375q-0.5390625,0.9375-0.84375,2.23828125t-0.43359375,2.56640625t-0.12890625,1.7109375z M117.008203125,43.1640625q0-1.875,0.73828125-3.8203125t2.015625-3.52734375t3-2.58984375t3.73828125-1.0078125q2.0625,0,3.43359375,0.9609375t2.19140625,2.44921875t1.13671875,3.31640625t0.31640625,3.4921875q0,1.78125-0.31640625,4.11328125t-0.984375,4.7578125t-1.7109375,4.79296875t-2.44921875,4.21875t-3.2578125,2.9765625t-4.1015625,1.125q-0.234375,0-0.66796875-0.046875t-0.8671875-0.140625t-0.75-0.3046875t-0.31640625-0.5625q0-0.328125,0.31640625-0.515625t0.75-0.29296875t0.85546875-0.17578125t0.6796875-0.1640625q1.4765625-0.6328125,2.82421875-2.33203125t2.37890625-3.78515625t1.69921875-4.21875t0.92578125-3.6796875q-1.2421875,0.7734375-2.7421875,1.16015625t-2.9765625,0.38671875q-2.9765625,0-4.41796875-1.875t-1.44140625-4.7109375z M121.039453125,43.5625q0,0.46875,0.1171875,1.2421875t0.36328125,1.51171875t0.6796875,1.265625t1.08984375,0.52734375q0.6328125,0,1.453125-0.28125t1.60546875-0.73828125t1.46484375-0.99609375t1.0078125-0.9609375q0.28125-0.328125,0.375-1.3359375t0.046875-2.28515625t-0.2578125-2.671875t-0.59765625-2.49609375t-0.9140625-1.74609375t-1.25390625-0.50390625q-1.2890625,0.28125-2.25,1.3125t-1.60546875,2.42578125t-0.984375,2.9296875t-0.33984375,2.80078125z M138.35203125,54.7890625q0-1.6875,0.43359375-3.38671875t1.34765625-3.046875t2.33203125-2.19140625t3.33984375-0.84375q0.8203125,0,1.8046875,0.19921875t1.81640625,0.6328125t1.40625,1.125t0.57421875,1.69921875q0,0.6328125-0.328125,0.84375t-0.8671875,0.2109375l-0.1640625-0.234375t-0.45703125-0.59765625t-0.62109375-0.7734375t-0.6328125-0.69140625q-0.9609375-0.9609375-1.8046875-1.03125l-0.1875,0q-0.703125,0-1.3125,0.421875q-0.6796875,0.515625-1.20703125,1.453125t-0.87890625,1.9921875t-0.55078125,2.1328125t-0.19921875,1.78125q0,0.9609375,0.22265625,2.19140625t0.75,2.33203125t1.3359375,1.8515625t2.07421875,0.75q1.1484375,0,2.0859375-0.5625t1.79296875-1.25390625t1.67578125-1.2421875t1.6875-0.55078125q0.375,0,0.76171875,0.09375t0.38671875,0.4921875l0,0.140625q-0.421875,1.1015625-1.4296875,1.9453125t-2.26171875,1.46484375t-2.6015625,0.92578125t-2.40234375,0.3046875q-1.96875,0-3.45703125-0.64453125t-2.47265625-1.76953125t-1.48828125-2.70703125t-0.50390625-3.45703125z M158.336484375,55.703125q0-1.3359375,0.33984375-2.75390625t1.078125-2.5546875t1.86328125-1.8515625t2.71875-0.71484375q1.1953125,0,2.51953125,0.41015625t2.42578125,1.171875t1.79296875,1.86328125t0.69140625,2.4609375q0,1.640625-0.59765625,3.1171875t-1.67578125,2.63671875t-2.51953125,1.828125t-3.12890625,0.66796875q-1.3828125,0-2.4140625-0.50390625t-1.72265625-1.34765625t-1.03125-1.9921875t-0.33984375-2.4375z M161.781796875,55.65625q0,0.421875,0.12890625,1.2421875t0.38671875,1.60546875t0.66796875,1.359375t0.99609375,0.52734375q1.2421875-0.140625,2.05078125-0.80859375t1.3125-1.62890625t0.703125-2.0859375t0.19921875-2.1328125q0-1.2890625-0.50390625-2.15625t-1.65234375-1.40625q0,0.046875,0.046875,0.046875t0.046875-0.046875l-0.5859375-0.140625q-0.234375-0.09375-0.57421875-0.2109375t-0.66796875-0.515625q-0.9140625,0.328125-1.41796875,0.84375t-0.76171875,1.25390625t-0.31640625,1.76953125t-0.05859375,2.484375z"/><path fill="#" d=""/></svg>
