<svg viewBox="0 0 13 10" fill="none" xmlns="http://www.w3.org/2000/svg">
  <path
    d="M3.00754 0.865041C3.06522 0.922654 3.11097 0.991069 3.14219 1.06638C3.17341 1.14168 3.18948 1.22241 3.18948 1.30393C3.18948 1.38545 3.17341 1.46617 3.14219 1.54148C3.11097 1.61679 3.06522 1.6852 3.00754 1.74281C2.07669 2.67382 1.55376 3.93644 1.55376 5.25297C1.55376 6.56951 2.07669 7.83213 3.00754 8.76313C3.06514 8.82077 3.11081 8.88918 3.14197 8.96447C3.17312 9.03976 3.18914 9.12045 3.18911 9.20193C3.18909 9.28341 3.17301 9.36409 3.1418 9.43935C3.11059 9.51462 3.06487 9.583 3.00723 9.6406C2.9496 9.69819 2.88118 9.74387 2.80589 9.77503C2.7306 9.80618 2.64992 9.8222 2.56844 9.82217C2.48696 9.82214 2.40628 9.80606 2.33101 9.77486C2.25575 9.74365 2.18736 9.69792 2.12977 9.64029C-0.293256 7.21726 -0.293256 3.28807 2.12977 0.865041C2.18738 0.807365 2.2558 0.761609 2.3311 0.730391C2.40641 0.699174 2.48713 0.683105 2.56865 0.683105C2.65018 0.683105 2.7309 0.699174 2.80621 0.730391C2.88151 0.761609 2.94993 0.807365 3.00754 0.865041ZM10.905 0.865041C13.328 3.28869 13.328 7.21726 10.905 9.64029C10.788 9.75329 10.6313 9.81581 10.4687 9.8144C10.306 9.81299 10.1504 9.74775 10.0354 9.63273C9.9204 9.51772 9.85516 9.36213 9.85375 9.19948C9.85234 9.03683 9.91486 8.88013 10.0279 8.76313C10.9587 7.83213 11.4816 6.56951 11.4816 5.25297C11.4816 3.93644 10.9587 2.67382 10.0279 1.74281C9.91146 1.6265 9.84604 1.4687 9.84598 1.30415C9.84592 1.13959 9.91123 0.981751 10.0276 0.865351C10.1439 0.748951 10.3017 0.683526 10.4662 0.683468C10.6308 0.68341 10.7886 0.748724 10.905 0.865041ZM4.84807 2.64788C4.96437 2.76421 5.0297 2.92197 5.0297 3.08646C5.0297 3.25095 4.96437 3.4087 4.84807 3.52503C4.62224 3.75084 4.4431 4.01892 4.32088 4.31397C4.19866 4.60901 4.13575 4.92524 4.13575 5.2446C4.13575 5.56396 4.19866 5.88019 4.32088 6.17523C4.4431 6.47028 4.62224 6.73836 4.84807 6.96417C4.90732 7.02139 4.95458 7.08984 4.98709 7.16552C5.0196 7.24121 5.03671 7.32261 5.03743 7.40497C5.03815 7.48734 5.02245 7.56903 4.99126 7.64526C4.96007 7.7215 4.91401 7.79076 4.85576 7.84901C4.79752 7.90725 4.72825 7.95331 4.65202 7.9845C4.57578 8.0157 4.4941 8.03139 4.41173 8.03068C4.32936 8.02996 4.24796 8.01285 4.17228 7.98034C4.09659 7.94783 4.02814 7.90057 3.97092 7.84132C3.28224 7.15262 2.89535 6.21855 2.89535 5.2446C2.89535 4.27065 3.28224 3.33658 3.97092 2.64788C4.08725 2.53159 4.24501 2.46626 4.4095 2.46626C4.57399 2.46626 4.73174 2.53159 4.84807 2.64788ZM9.16498 2.64788C9.85365 3.33658 10.2405 4.27065 10.2405 5.2446C10.2405 6.21855 9.85365 7.15262 9.16498 7.84132C9.10738 7.89895 9.039 7.94468 8.96373 7.97589C8.88847 8.0071 8.80779 8.02317 8.72631 8.0232C8.64483 8.02323 8.56414 8.00721 8.48885 7.97606C8.41356 7.9449 8.34515 7.89922 8.28751 7.84163C8.22988 7.78403 8.18415 7.71565 8.15294 7.64038C8.12174 7.56512 8.10566 7.48444 8.10563 7.40296C8.1056 7.32148 8.12162 7.24079 8.15278 7.1655C8.18393 7.09022 8.22961 7.0218 8.2872 6.96417C8.51304 6.73836 8.69218 6.47028 8.8144 6.17523C8.93662 5.88019 8.99952 5.56396 8.99952 5.2446C8.99952 4.92524 8.93662 4.60901 8.8144 4.31397C8.69218 4.01892 8.51304 3.75084 8.2872 3.52503C8.17089 3.40863 8.10557 3.25079 8.10563 3.08624C8.10569 2.92168 8.17111 2.76389 8.28751 2.64757C8.40391 2.53125 8.56175 2.46594 8.72631 2.466C8.89087 2.46606 9.04866 2.53148 9.16498 2.64788ZM6.56764 4.36621C6.68983 4.36621 6.81083 4.39027 6.92373 4.43704C7.03662 4.4838 7.1392 4.55234 7.2256 4.63874C7.31201 4.72515 7.38055 4.82773 7.42731 4.94062C7.47407 5.05351 7.49814 5.17451 7.49814 5.29671C7.49814 5.4189 7.47407 5.5399 7.42731 5.6528C7.38055 5.76569 7.31201 5.86827 7.2256 5.95467C7.1392 6.04108 7.03662 6.10962 6.92373 6.15638C6.81083 6.20314 6.68983 6.22721 6.56764 6.22721C6.32085 6.22721 6.08418 6.12917 5.90967 5.95467C5.73517 5.78017 5.63714 5.54349 5.63714 5.29671C5.63714 5.04992 5.73517 4.81325 5.90967 4.63874C6.08418 4.46424 6.32085 4.36621 6.56764 4.36621Z"
    fill="white"
  />
</svg>
