<svg viewBox="0 0 32 33" fill="none" xmlns="http://www.w3.org/2000/svg">
  <path
    d="M16 20.1538C18.2091 20.1538 20 18.3695 20 16.1684C20 13.9673 18.2091 12.183 16 12.183C13.7909 12.183 12 13.9673 12 16.1684C12 18.3695 13.7909 20.1538 16 20.1538Z"
    fill="white"
  />
  <path
    d="M30.94 15.8296C29.7638 12.7984 27.722 10.177 25.0668 8.28937C22.4116 6.40177 19.2595 5.33071 16 5.20859C12.7405 5.33071 9.58839 6.40177 6.9332 8.28937C4.27802 10.177 2.23616 12.7984 1.06 15.8296C0.980569 16.0485 0.980569 16.2882 1.06 16.5071C2.23616 19.5384 4.27802 22.1598 6.9332 24.0474C9.58839 25.935 12.7405 27.0061 16 27.1282C19.2595 27.0061 22.4116 25.935 25.0668 24.0474C27.722 22.1598 29.7638 19.5384 30.94 16.5071C31.0194 16.2882 31.0194 16.0485 30.94 15.8296ZM16 22.6446C14.7144 22.6446 13.4577 22.2648 12.3888 21.5532C11.3199 20.8416 10.4868 19.8301 9.99479 18.6467C9.50282 17.4634 9.37409 16.1612 9.6249 14.9049C9.8757 13.6487 10.4948 12.4947 11.4038 11.589C12.3128 10.6833 13.471 10.0665 14.7319 9.81658C15.9928 9.5667 17.2997 9.69495 18.4874 10.1851C19.6752 10.6753 20.6903 11.5054 21.4046 12.5704C22.1188 13.6354 22.5 14.8875 22.5 16.1684C22.4974 17.8852 21.8117 19.5309 20.5933 20.7449C19.3749 21.9588 17.7231 22.642 16 22.6446Z"
    fill="white"
  />
</svg>
