<svg viewBox="0 0 48 32" fill="none" xmlns="http://www.w3.org/2000/svg">
  <g id="mastercard-color_large">
    <rect id="card_bg" width="48" height="32" rx="4" fill="#F2F0EC" />
    <g id="mastercard">
      <g id="Group" opacity="0.01">
        <rect id="Rectangle" x="4.65002" y="3.2002" width="38.71" height="25.6" fill="white" />
      </g>
      <rect id="Rectangle_2" x="18.9" y="7.66016" width="10.21" height="16.68" fill="#F26122" />
      <path
        id="Path"
        d="M20 16.0003C19.9831 12.7538 21.4577 9.67935 24 7.6603C19.6502 4.2396 13.4019 4.73632 9.64729 8.80131C5.89264 12.8663 5.89264 19.1343 9.64729 23.1993C13.4019 27.2643 19.6502 27.761 24 24.3403C21.4577 22.3212 19.9831 19.2468 20 16.0003Z"
        fill="#EA1D25"
      />
      <path
        id="Shape"
        fill-rule="evenodd"
        clip-rule="evenodd"
        d="M40.14 22.2302V22.5702H40.08V22.2302H39.94V22.1602H40.29V22.2302H40.14ZM40.82 22.1602V22.5702H40.75V22.2602L40.64 22.5302H40.56L40.44 22.2602V22.5702H40.37V22.1602H40.47L40.6 22.4502L40.72 22.1602H40.82Z"
        fill="#F69E1E"
      />
      <path
        id="Path_2"
        d="M41.16 16.0002C41.1574 20.0596 38.8389 23.7616 35.1879 25.5361C31.5369 27.3105 27.1935 26.8462 24 24.3402C28.6001 20.7182 29.3967 14.0545 25.78 9.45023C25.2616 8.7835 24.6638 8.18241 24 7.66023C27.1935 5.15422 31.5369 4.68997 35.1879 6.4644C38.8389 8.23883 41.1574 11.9409 41.16 16.0002Z"
        fill="#F69E1E"
      />
    </g>
  </g>
</svg>
