<svg viewBox="0 0 48 32" fill="none" xmlns="http://www.w3.org/2000/svg">
  <g id="discover-color-large">
    <rect id="card_bg" width="48" height="32" rx="4" fill="white" />
    <path
      id="card_bg-2"
      fill-rule="evenodd"
      clip-rule="evenodd"
      d="M4 0H44C46.2091 0 48 1.79086 48 4V28C48 30.2091 46.2091 32 44 32H4C1.79086 32 0 30.2091 0 28V4C0 1.79086 1.79086 0 4 0ZM46 4C46 2.89543 45.1046 2 44 2H4C2.89543 2 2 2.89543 2 4V28C2 29.1046 2.89543 30 4 30H44C45.1046 30 46 29.1046 46 28V4Z"
      fill="#231F20"
    />
    <g id="discover">
      <path
        id="Path"
        d="M46 17.7202V28.0002C46 29.1048 45.1046 30.0002 44 30.0002H11.92C34 26.2202 46 17.7202 46 17.7202Z"
        fill="#EE7623"
      />
      <path
        id="Shape"
        fill-rule="evenodd"
        clip-rule="evenodd"
        d="M4 10.64H5.83C6.72346 10.5635 7.60751 10.869 8.26313 11.4808C8.91875 12.0925 9.28458 12.9534 9.27 13.85C9.26809 14.7994 8.84726 15.6996 8.12 16.31C7.47109 16.8251 6.65765 17.088 5.83 17.05H4V10.64ZM5.58 16C6.20073 16.0537 6.81698 15.8555 7.29 15.45C7.74494 15.0346 8.00287 14.446 8 13.83C8.00098 13.2201 7.74289 12.6385 7.29 12.23C6.81074 11.8382 6.19624 11.6513 5.58 11.71H5.25V16H5.58Z"
        fill="#231F20"
      />
      <rect id="Rectangle" x="9.84998" y="10.6299" width="1.25" height="6.42" fill="#231F20" />
      <path
        id="Path_2"
        d="M14.17 13.09C13.42 12.82 13.17 12.63 13.17 12.29C13.17 11.95 13.56 11.57 14.1 11.57C14.494 11.5865 14.8602 11.777 15.1 12.09L15.75 11.24C15.2369 10.771 14.5652 10.5137 13.87 10.52C13.3578 10.4871 12.8545 10.6651 12.4768 11.0126C12.0991 11.3601 11.8799 11.8468 11.87 12.36C11.87 13.25 12.27 13.7 13.44 14.12C13.7408 14.2163 14.032 14.3402 14.31 14.49C14.5457 14.6261 14.6907 14.8778 14.69 15.15C14.6882 15.4067 14.5792 15.6511 14.3892 15.8239C14.1993 15.9967 13.9458 16.0823 13.69 16.06C13.1068 16.0663 12.5743 15.7296 12.33 15.2L11.52 15.98C11.9927 16.7803 12.8719 17.2508 13.8 17.2C14.3772 17.2394 14.9444 17.0344 15.3629 16.6349C15.7814 16.2354 16.0126 15.6784 16 15.1C16 14.08 15.59 13.61 14.17 13.09Z"
        fill="#231F20"
      />
      <path
        id="Path_3"
        d="M16.41 13.8402C16.4017 14.7382 16.7575 15.6012 17.3962 16.2324C18.035 16.8637 18.9022 17.2092 19.8 17.1902C20.3453 17.1934 20.8835 17.0666 21.37 16.8202V15.3502C20.9923 15.7918 20.4411 16.0473 19.86 16.0502C19.2722 16.065 18.7049 15.8337 18.2948 15.4123C17.8847 14.9909 17.6692 14.4174 17.7 13.8302C17.6811 13.2584 17.8931 12.7031 18.2881 12.2893C18.6831 11.8755 19.228 11.638 19.8 11.6302C20.4027 11.6326 20.9749 11.8951 21.37 12.3502V10.8802C20.8987 10.619 20.3689 10.4813 19.83 10.4802C18.9301 10.4696 18.0631 10.8182 17.4212 11.4489C16.7792 12.0796 16.4153 12.9403 16.41 13.8402Z"
        fill="#231F20"
      />
      <path
        id="Path_4"
        d="M31.3 14.9399L29.58 10.6299H28.22L30.94 17.2099H31.61L34.39 10.6299H33.03L31.3 14.9399Z"
        fill="#231F20"
      />
      <path
        id="Path_5"
        d="M34.95 17.0499H38.51V15.9599H36.2V14.2299H38.42V13.1399H36.2V11.7199H38.51V10.6299H34.95V17.0499Z"
        fill="#231F20"
      />
      <path
        id="Shape_2"
        fill-rule="evenodd"
        clip-rule="evenodd"
        d="M43.46 12.5201C43.5276 13.4183 42.8908 14.2165 42 14.3501L44 17.0501H42.48L40.74 14.4701H40.59V17.0501H39.34V10.6401H41.19C42.63 10.6401 43.46 11.3301 43.46 12.5201ZM40.63 13.5801H41C41.75 13.5801 42.19 13.3201 42.19 12.6401C42.19 11.9601 41.77 11.6401 41 11.6401H40.63V13.5801Z"
        fill="#231F20"
      />
      <path
        id="Path_6"
        d="M28.59 13.8402C28.59 15.7235 27.0633 17.2502 25.18 17.2502C23.2967 17.2502 21.77 15.7235 21.77 13.8402C21.77 11.9569 23.2967 10.4302 25.18 10.4302C27.061 10.4357 28.5845 11.9592 28.59 13.8402Z"
        fill="#EE7623"
      />
      <path
        id="Shape_3"
        fill-rule="evenodd"
        clip-rule="evenodd"
        d="M44.11 10.7501C44.1175 10.8232 44.0709 10.8909 44 10.9101L44.17 11.1601H44.02L43.84 10.9201V11.1601H43.71V10.5801H43.9C44.04 10.5801 44.11 10.6401 44.11 10.7501ZM43.88 10.6901V10.8301H43.9C43.9842 10.8301 43.9833 10.8159 43.981 10.7757C43.9805 10.7681 43.98 10.7596 43.98 10.7501C43.98 10.6901 43.94 10.6901 43.88 10.6901Z"
        fill="#231F20"
      />
      <path
        id="Shape_4"
        fill-rule="evenodd"
        clip-rule="evenodd"
        d="M43.5964 10.5206C43.6864 10.4269 43.81 10.3727 43.94 10.3701C44.0768 10.3616 44.2109 10.4109 44.3097 10.5059C44.4086 10.6009 44.4631 10.733 44.46 10.8701C44.46 11.1462 44.2361 11.3701 43.96 11.3701C43.6839 11.3701 43.46 11.1462 43.46 10.8701C43.4573 10.7401 43.5064 10.6144 43.5964 10.5206ZM43.94 11.2701C44.0353 11.2712 44.1265 11.2311 44.19 11.1601C44.2736 11.087 44.3211 10.9811 44.32 10.8701C44.3254 10.7649 44.2881 10.6621 44.2166 10.5848C44.145 10.5076 44.0453 10.4626 43.94 10.4601C43.8339 10.4627 43.7332 10.5074 43.6601 10.5843C43.5869 10.6612 43.5473 10.764 43.55 10.8701C43.5473 10.9752 43.5872 11.077 43.6606 11.1523C43.7341 11.2276 43.8348 11.2701 43.94 11.2701Z"
        fill="#231F20"
      />
    </g>
  </g>
</svg>
