<svg viewBox="0 0 48 32" fill="none" xmlns="http://www.w3.org/2000/svg">
  <g id="americanexpress-color-large">
    <rect id="Rectangle" width="48" height="32" rx="4" fill="white" />
    <g id="amex">
      <path
        id="Path"
        d="M8.88 17.9002V26.0602H17.14L18 24.8402L18.84 26.0602H23.89V24.2202H24.45C24.9584 24.2246 25.4643 24.1504 25.95 24.0002V26.0602H29.38V24.6002L30.54 26.0602H46.16C46.802 26.0714 47.4338 25.8978 47.98 25.5602V29.0002C47.5224 30.7724 45.9203 32.008 44.09 32.0002H4C1.79086 32.0002 0 30.2093 0 28.0002V15.4002H2.28L2.75 14.1802H3.87L4.33 15.4002H22.67V13.9402L23.83 15.4002H28.64V14.6602C29.3453 15.1622 30.1945 15.4219 31.06 15.4002H33.93L34.39 14.1802H35.51L36 15.4002H40.9V13.8202L41.9 15.4002H45.28V7.24017H41.69V8.90017L40.62 7.24017H37.48V9.34017L36.48 7.24017H31.14C30.2366 7.214 29.3524 7.50401 28.64 8.06017V7.24017H11L10.4 9.00017L9.8 7.20017H5.8V9.30017L4.86 7.20017H1.6L0 11.0002V4.00017C0 1.79103 1.79086 0.000172746 4 0.000172746H44.09C45.9278 -0.0168146 47.5406 1.22068 48 3.00017V17.9002H18.86L18 19.1002L17.16 17.9002H8.88Z"
        fill="#296DB6"
      />
      <path
        id="Shape"
        fill-rule="evenodd"
        clip-rule="evenodd"
        d="M21.32 19.2002H24.43V19.1602C24.9479 19.1166 25.4595 19.2978 25.8345 19.6576C26.2096 20.0173 26.4119 20.5209 26.39 21.0402C26.4028 21.5656 26.1927 22.072 25.8116 22.434C25.4306 22.796 24.9141 22.9799 24.39 22.9402H22.69V24.8002H21.32V19.2002ZM14.71 20.3602V19.1602H10.18V24.8002H14.71V23.6002H11.54V22.6002H14.65V21.3802H11.54V20.3802L14.71 20.3602ZM18.8 22.0002L21.06 19.2002H19.4L18 20.9402L16.61 19.1602H14.91L17.2 22.0002L15 24.8002H16.64L18 23.0002L19.36 24.8202H21.08L18.8 22.0002ZM24.31 21.7802H22.69V20.3602H24.31C24.6911 20.3602 25 20.6691 25 21.0502C25 21.4313 24.6911 21.7402 24.31 21.7402V21.7802ZM32.17 20.7902C32.286 21.7732 31.5831 22.6642 30.6 22.7802L32.49 24.8002H30.78L29.1 22.8002H28.48V24.8002H27.12V19.2202H30.18C31.1631 19.1042 32.054 19.8071 32.17 20.7902ZM30.06 21.6602H28.48V20.3602H30.06C30.2378 20.337 30.4169 20.392 30.5511 20.5109C30.6853 20.6297 30.7615 20.8009 30.76 20.9802C30.7649 21.1606 30.6898 21.3339 30.5547 21.4535C30.4196 21.5732 30.2385 21.6269 30.06 21.6002V21.6602ZM37.36 19.2202V20.4202L34.19 20.3802V21.3802H37.28V22.6002H34.19V23.6002H37.36V24.8002H32.81V19.2202H37.36ZM41.13 21.4202H39.82C39.6175 21.4609 39.4105 21.3754 39.2956 21.2038C39.1808 21.0322 39.1808 20.8082 39.2956 20.6366C39.4105 20.4649 39.6175 20.3795 39.82 20.4202H42.25L42.79 19.2202H39.86C39.3615 19.1624 38.8623 19.3227 38.4906 19.6599C38.1189 19.9971 37.9109 20.4784 37.92 20.9802C37.8896 21.4471 38.0691 21.9032 38.4094 22.2243C38.7498 22.5453 39.2157 22.6978 39.68 22.6402H41C41.2025 22.5995 41.4095 22.6849 41.5244 22.8566C41.6392 23.0282 41.6392 23.2522 41.5244 23.4238C41.4095 23.5954 41.2025 23.6809 41 23.6402H38.08V24.8402H41C41.5039 24.8814 42.0011 24.7026 42.3634 24.3499C42.7256 23.9972 42.9177 23.505 42.89 23.0002C42.9153 22.538 42.7326 22.0886 42.392 21.7751C42.0514 21.4616 41.5885 21.3168 41.13 21.3802V21.4202ZM47.46 20.4202H45.03L45 20.3802C44.7975 20.3395 44.5905 20.4249 44.4756 20.5966C44.3608 20.7682 44.3608 20.9922 44.4756 21.1638C44.5905 21.3354 44.7975 21.4209 45 21.3802H46.36C47.0518 21.309 47.7117 21.6873 48 22.3202V23.6602C47.7246 24.4225 46.9666 24.9004 46.16 24.8202H43.29V23.6202H46.18C46.3825 23.6609 46.5895 23.5754 46.7044 23.4038C46.8192 23.2322 46.8192 23.0082 46.7044 22.8366C46.5895 22.6649 46.3825 22.5795 46.18 22.6202H44.89C44.4257 22.6778 43.9598 22.5253 43.6194 22.2043C43.2791 21.8832 43.0996 21.4271 43.13 20.9602C43.1209 20.4584 43.3289 19.9771 43.7006 19.6399C44.0723 19.3027 44.5715 19.1424 45.07 19.2002H48L47.46 20.4202Z"
        fill="#296DB6"
      />
      <path
        id="Shape_2"
        fill-rule="evenodd"
        clip-rule="evenodd"
        d="M25.45 10.2799C25.4719 11.1814 24.8053 11.952 23.91 12.0599L25.79 14.1399H24.09L22.41 12.1399H21.79V14.1399H20.4V8.4999H23.45C23.9596 8.43307 24.473 8.59102 24.8569 8.93269C25.2408 9.27436 25.4573 9.76603 25.45 10.2799ZM4.23 8.4999H2.45L0 14.1399H1.48L2 12.9999H4.63L5.11 14.1799H6.65L4.23 8.4999ZM2.38 11.8599L2.93 10.5399L3.29 9.6599L3.65 10.5399L4.19 11.8599H2.38ZM10.6 11.7599L11.7 8.4999H13.89V14.1399H12.57V10.4399V9.5799L12.31 10.4399L11 14.1399H9.8L8.52 10.4399L8.24 9.5799V10.4399V14.1399H6.91V8.4999H9.12L10.24 11.7599L10.42 12.3799L10.6 11.7599ZM19.5 9.6999V8.4999H15V14.1399H19.5V12.9399H16.33V11.9399H19.42V10.7199H16.33V9.7199L19.5 9.6999ZM23.37 10.9399H21.79V9.6999H23.37C23.5471 9.68009 23.7243 9.73623 23.8577 9.85439C23.9912 9.97255 24.0683 10.1417 24.07 10.3199C24.0749 10.5003 23.9998 10.6736 23.8647 10.7933C23.7296 10.9129 23.5485 10.9666 23.37 10.9399ZM26.11 14.1399V8.4999H27.48V14.1399H26.11ZM31.11 9.7199H32.58V8.4999H31C30.2562 8.45289 29.5291 8.73361 29.0099 9.26822C28.4907 9.80283 28.2313 10.5378 28.3 11.2799V11.3599C28.2164 12.0914 28.4596 12.8225 28.9645 13.3583C29.4694 13.894 30.1849 14.18 30.92 14.1399H31L31.55 12.9399H31.1C30.685 12.9612 30.2819 12.7971 29.9999 12.4919C29.7179 12.1867 29.586 11.7719 29.64 11.3599V11.2799C29.5925 10.8711 29.7272 10.462 30.0085 10.1615C30.2897 9.86104 30.6889 9.69951 31.1 9.7199H31.11ZM34.09 8.4999H35.89L38.3 14.1799H36.76L36.28 12.9999H33.61L33.13 14.1399H31.67L34.09 8.4999ZM34.05 11.8599L34.57 10.5399L34.93 9.6599L35.27 10.5399L35.81 11.8599H34.05ZM42.61 11.4999V8.4999H44V14.1399H42.35L40.26 10.9599L39.9 10.3399V10.9999V14.1799H38.56V8.5399H40.23L42.23 11.5399L42.61 12.1799V11.4999Z"
        fill="#296DB6"
      />
    </g>
  </g>
</svg>
