<svg viewBox="0 0 31 42" fill="none" xmlns="http://www.w3.org/2000/svg">
  <path
    d="M31 24.4364C31 25.0727 30.774 25.6136 30.3219 26.0591C29.8698 26.5045 29.3208 26.7273 28.675 26.7273C27.8516 26.7273 27.2057 26.3852 26.7375 25.7011L21.2398 17.5636H20.15V20.7136L26.132 30.5216C26.2773 30.7602 26.35 31.0227 26.35 31.3091C26.35 31.7227 26.1966 32.0807 25.8898 32.383C25.5831 32.6852 25.2198 32.8364 24.8 32.8364H20.15V39.3273C20.15 40.0591 19.8836 40.6875 19.3508 41.2125C18.818 41.7375 18.1802 42 17.4375 42H13.5625C12.8198 42 12.182 41.7375 11.6492 41.2125C11.1164 40.6875 10.85 40.0591 10.85 39.3273V32.8364H6.2C5.78021 32.8364 5.41693 32.6852 5.11016 32.383C4.80339 32.0807 4.65 31.7227 4.65 31.3091C4.65 31.0227 4.72266 30.7602 4.86797 30.5216L10.85 20.7136V17.5636H9.76016L4.2625 25.7011C3.79427 26.3852 3.14844 26.7273 2.325 26.7273C1.67917 26.7273 1.13021 26.5045 0.678125 26.0591C0.226042 25.6136 0 25.0727 0 24.4364C0 23.975 0.129167 23.5534 0.3875 23.1716L6.5875 14.008C7.76615 12.3057 9.18698 11.4545 10.85 11.4545H20.15C21.813 11.4545 23.2339 12.3057 24.4125 14.008L30.6125 23.1716C30.8708 23.5534 31 23.975 31 24.4364ZM20.925 5.34545C20.925 6.825 20.3962 8.0858 19.3387 9.12784C18.2811 10.1699 17.0016 10.6909 15.5 10.6909C13.9984 10.6909 12.7189 10.1699 11.6613 9.12784C10.6038 8.0858 10.075 6.825 10.075 5.34545C10.075 3.86591 10.6038 2.60511 11.6613 1.56307C12.7189 0.521023 13.9984 0 15.5 0C17.0016 0 18.2811 0.521023 19.3387 1.56307C20.3962 2.60511 20.925 3.86591 20.925 5.34545Z"
    fill="white"
  />
</svg>
