<svg viewBox="0 0 27 24" xmlns="http://www.w3.org/2000/svg">
  <path
    d="M25.5338 5.44457C25.1356 4.5226 24.5615 3.68712 23.8435 2.9849C23.125 2.28058 22.2779 1.72088 21.3482 1.33621C20.3842 0.93575 19.3502 0.730773 18.3063 0.733175C16.8418 0.733175 15.4129 1.13421 14.1712 1.89171C13.8742 2.07292 13.592 2.27195 13.3246 2.48881C13.0573 2.27195 12.775 2.07292 12.478 1.89171C11.2363 1.13421 9.8074 0.733175 8.34289 0.733175C7.28832 0.733175 6.26643 0.935177 5.30098 1.33621C4.36821 1.72239 3.52753 2.27789 2.80567 2.9849C2.08677 3.68633 1.5125 4.522 1.11539 5.44457C0.702475 6.40407 0.491562 7.42299 0.491562 8.47162C0.491562 9.46083 0.693564 10.4916 1.0946 11.5403C1.43028 12.4166 1.91151 13.3256 2.52643 14.2435C3.50079 15.6961 4.84054 17.2112 6.50408 18.747C9.26081 21.2928 11.9908 23.0514 12.1067 23.1227L12.8107 23.5742C13.1226 23.7732 13.5236 23.7732 13.8356 23.5742L14.5396 23.1227C14.6554 23.0484 17.3825 21.2928 20.1422 18.747C21.8057 17.2112 23.1455 15.6961 24.1198 14.2435C24.7347 13.3256 25.2189 12.4166 25.5516 11.5403C25.9527 10.4916 26.1547 9.46083 26.1547 8.47162C26.1577 7.42299 25.9467 6.40407 25.5338 5.44457Z"
  />
</svg>
